# xmcd
#
# Track frame offsets: 
#        150
#        13012
#        26651
#        44058
#        63831
#        69903
#        92990
#        107552
#        132183
#        145093
#        166695
#
# Disc length: 2581 seconds
#
# Revision: 0
# Processed by: cddbd v1.5.2PL0 Copyright (c) Steve Scherf et al.
# Submitted via: ExactAudioCopy v0.95a4
#
DISCID=8e0a130b
DTITLE=Hiss Golden Messenger - Heart Like A Levee
DYEAR=2016
DGENRE=Indie
TTITLE0=Biloxi
TTITLE1=Tell Her I'm Just Dancing
TTITLE2=Heart Like A Levee
TTITLE3=Like A Mirror Loves A Hammer
TTITLE4=Smoky's Song
TTITLE5=Cracked Windshield
TTITLE6=As The Crow Flies
TTITLE7=Happy Day (Sister My Sister)
TTITLE8=Say It Like You Mean It
TTITLE9=Ace Of Cups Hung Low Band
TTITLE10=Highland Grace
EXTD=
EXTT0=
EXTT1=
EXTT2=
EXTT3=
EXTT4=
EXTT5=
EXTT6=
EXTT7=
EXTT8=
EXTT9=
EXTT10=
PLAYORDER=
